<svg width="29" height="19" viewBox="0 0 29 19" fill="none" xmlns="http://www.w3.org/2000/svg">
<g clip-path="url(#clip0_856633_3026)">
<path d="M22.6425 2.15656C22.0711 1.00466 21.2139 0.428711 20.0711 0.428711C18.9283 0.428711 18.0712 1.00466 17.4998 2.15656L10.2145 15.9793H14.0714C16.2142 15.9793 16.6427 15.1154 17.4998 13.3875L20.0711 8.20401L21.3568 10.7958C22.6425 13.3875 23.4996 13.3875 24.7852 13.3875H28.6422L22.6425 2.15656Z" fill="white"/>
<path d="M11.5001 7.34015C10.9287 6.18824 10.0716 5.61229 8.92882 5.6123C7.78601 5.6123 6.9289 6.18825 6.3575 7.34015L0.357788 18.5711H4.21475C6.3575 18.5711 6.78604 17.7072 7.64316 15.9794L8.92882 13.3876L10.2145 15.9794L13.1498 10.41L11.5001 7.34015Z" fill="white"/>
</g>
<defs>
<clipPath id="clip0_856633_3026">
<rect width="29" height="19" fill="white"/>
</clipPath>
</defs>
</svg>
