<svg width="24" height="25" viewBox="0 0 24 25" fill="none" xmlns="http://www.w3.org/2000/svg">
<path d="M20.75 10.7031C18.9922 10.7422 17.3516 10.1953 15.9453 9.17969V16.1719C15.9453 21.0547 10.6328 24.1016 6.41406 21.6797C2.19531 19.2188 2.19531 13.125 6.41406 10.6641C7.625 9.96094 9.07031 9.6875 10.4766 9.88281V13.3984C8.32812 12.6953 6.25781 14.6094 6.72656 16.7969C7.23438 18.9844 9.89062 19.8438 11.5703 18.3203C12.1562 17.7734 12.5078 16.9922 12.5078 16.1719V2.5H15.9453C15.9453 2.8125 15.9453 3.08594 16.0234 3.39844C16.2578 4.6875 17 5.82031 18.1328 6.52344C18.875 7.03125 19.8125 7.30469 20.75 7.30469V10.7031Z" fill="#F4F4F4"/>
</svg>
