<svg width="33" height="33" viewBox="0 0 33 33" fill="none" xmlns="http://www.w3.org/2000/svg">
<path d="M26.4113 4.13423H23.3844V3.12528C23.3844 2.85769 23.2781 2.60106 23.0889 2.41185C22.8997 2.22263 22.6431 2.11633 22.3755 2.11633C22.1079 2.11633 21.8512 2.22263 21.662 2.41185C21.4728 2.60106 21.3665 2.85769 21.3665 3.12528V4.13423H11.277V3.12528C11.277 2.85769 11.1707 2.60106 10.9815 2.41185C10.7923 2.22263 10.5357 2.11633 10.2681 2.11633C10.0005 2.11633 9.74384 2.22263 9.55462 2.41185C9.36541 2.60106 9.25911 2.85769 9.25911 3.12528V4.13423H6.23226C5.69708 4.13423 5.18382 4.34683 4.80539 4.72526C4.42696 5.10369 4.21436 5.61696 4.21436 6.15214V26.3312C4.21436 26.8663 4.42696 27.3796 4.80539 27.758C5.18382 28.1365 5.69708 28.3491 6.23226 28.3491H26.4113C26.9465 28.3491 27.4597 28.1365 27.8381 27.758C28.2166 27.3796 28.4292 26.8663 28.4292 26.3312V6.15214C28.4292 5.61696 28.2166 5.10369 27.8381 4.72526C27.4597 4.34683 26.9465 4.13423 26.4113 4.13423ZM9.25911 6.15214V7.16109C9.25911 7.42868 9.36541 7.68531 9.55462 7.87452C9.74384 8.06374 10.0005 8.17004 10.2681 8.17004C10.5357 8.17004 10.7923 8.06374 10.9815 7.87452C11.1707 7.68531 11.277 7.42868 11.277 7.16109V6.15214H21.3665V7.16109C21.3665 7.42868 21.4728 7.68531 21.662 7.87452C21.8512 8.06374 22.1079 8.17004 22.3755 8.17004C22.6431 8.17004 22.8997 8.06374 23.0889 7.87452C23.2781 7.68531 23.3844 7.42868 23.3844 7.16109V6.15214H26.4113V10.1879H6.23226V6.15214H9.25911ZM26.4113 26.3312H6.23226V12.2058H26.4113V26.3312ZM21.5759 15.5278C21.6697 15.6215 21.7441 15.7328 21.7949 15.8553C21.8457 15.9778 21.8718 16.1091 21.8718 16.2416C21.8718 16.3742 21.8457 16.5055 21.7949 16.628C21.7441 16.7505 21.6697 16.8618 21.5759 16.9555L15.5222 23.0092C15.4285 23.103 15.3172 23.1774 15.1947 23.2282C15.0722 23.279 14.9409 23.3051 14.8083 23.3051C14.6757 23.3051 14.5445 23.279 14.422 23.2282C14.2995 23.1774 14.1882 23.103 14.0945 23.0092L11.0677 19.9823C10.8783 19.793 10.772 19.5362 10.772 19.2685C10.772 19.0008 10.8783 18.744 11.0677 18.5547C11.257 18.3653 11.5137 18.259 11.7815 18.259C12.0492 18.259 12.306 18.3653 12.4953 18.5547L14.8083 20.8689L20.1482 15.5278C20.2419 15.434 20.3532 15.3596 20.4757 15.3088C20.5982 15.258 20.7295 15.2319 20.862 15.2319C20.9946 15.2319 21.1259 15.258 21.2484 15.3088C21.3709 15.3596 21.4822 15.434 21.5759 15.5278Z" fill="#343330"/>
</svg>
