<svg width="32" height="32" viewBox="0 0 32 32" fill="none" xmlns="http://www.w3.org/2000/svg">
<path d="M31 11.585C31.0008 11.3222 30.9494 11.0619 30.8488 10.8192C30.7481 10.5765 30.6002 10.3563 30.4137 10.1712L21.8287 1.58497C21.643 1.39921 21.4225 1.25185 21.1798 1.15131C20.9371 1.05077 20.677 0.999023 20.4143 0.999023C20.1516 0.999023 19.8915 1.05077 19.6489 1.15131C19.4062 1.25185 19.1857 1.39921 19 1.58497L15.4462 5.13872L8.19621 7.85997C7.86671 7.98285 7.57527 8.19013 7.35107 8.46106C7.12687 8.73199 6.97778 9.05705 6.91871 9.40372L4.01371 26.835C3.98974 26.9783 3.99727 27.1251 4.0358 27.2651C4.07432 27.4052 4.1429 27.5352 4.23677 27.6461C4.33064 27.757 4.44754 27.8461 4.57934 27.9072C4.71114 27.9683 4.85468 28 4.99996 28C5.05523 27.9997 5.1104 27.9951 5.16496 27.9862L22.595 25.0812C22.9412 25.0234 23.2661 24.8755 23.5371 24.6524C23.8081 24.4292 24.0156 24.1387 24.1387 23.81L26.86 16.56L30.4137 13C30.6003 12.8147 30.7483 12.5943 30.8489 12.3513C30.9495 12.1084 31.0009 11.8479 31 11.585ZM22.2662 23.1087L7.91496 25.5L13.8362 19.5787C14.5758 19.9784 15.4345 20.0986 16.2553 19.9172C17.0762 19.7359 17.8044 19.2651 18.3067 18.591C18.809 17.917 19.052 17.0846 18.9911 16.2462C18.9302 15.4077 18.5696 14.6192 17.9752 14.0248C17.3807 13.4303 16.5922 13.0697 15.7538 13.0088C14.9153 12.9479 14.0829 13.1909 13.4089 13.6932C12.7348 14.1955 12.2641 14.9237 12.0827 15.7446C11.9014 16.5654 12.0215 17.4242 12.4212 18.1637L6.49996 24.0875L8.89121 9.73247L15.75 7.16122L24.8375 16.25L22.2662 23.1087ZM14 16.5C14 16.2033 14.0879 15.9133 14.2528 15.6666C14.4176 15.4199 14.6518 15.2277 14.9259 15.1142C15.2 15.0006 15.5016 14.9709 15.7926 15.0288C16.0836 15.0867 16.3508 15.2295 16.5606 15.4393C16.7704 15.6491 16.9133 15.9164 16.9711 16.2073C17.029 16.4983 16.9993 16.7999 16.8858 17.074C16.7722 17.3481 16.58 17.5824 16.3333 17.7472C16.0866 17.912 15.7966 18 15.5 18C15.1021 18 14.7206 17.8419 14.4393 17.5606C14.158 17.2793 14 16.8978 14 16.5ZM26 14.585L17.4137 5.99997L20.4137 2.99997L29 11.585L26 14.585Z" fill="#343330"/>
</svg>
