<svg width="33" height="33" viewBox="0 0 33 33" fill="none" xmlns="http://www.w3.org/2000/svg">
<path d="M3.42995 15.9414C3.53595 16.0209 3.65656 16.0788 3.78492 16.1117C3.91327 16.1446 4.04684 16.1518 4.17801 16.1331C4.30917 16.1144 4.43536 16.07 4.54937 16.0025C4.66338 15.935 4.76298 15.8457 4.84248 15.7397C5.45335 14.9252 6.24548 14.2641 7.15612 13.8087C8.06676 13.3534 9.0709 13.1164 10.089 13.1164C11.1071 13.1164 12.1113 13.3534 13.0219 13.8087C13.9326 14.2641 14.7247 14.9252 15.3356 15.7397C15.4963 15.9535 15.7354 16.0948 16.0003 16.1324C16.2652 16.17 16.5342 16.1009 16.7481 15.9402C16.8244 15.8835 16.8919 15.8159 16.9486 15.7397C17.5595 14.9252 18.3516 14.2641 19.2623 13.8087C20.1729 13.3534 21.177 13.1164 22.1952 13.1164C23.2133 13.1164 24.2174 13.3534 25.1281 13.8087C26.0387 14.2641 26.8308 14.9252 27.4417 15.7397C27.6024 15.9537 27.8416 16.0952 28.1066 16.1329C28.3717 16.1706 28.6408 16.1015 28.8549 15.9408C29.069 15.7801 29.2104 15.5409 29.2481 15.2759C29.2859 15.0109 29.2168 14.7417 29.056 14.5277C28.1629 13.3304 26.972 12.3877 25.6016 11.7934C26.3529 11.1075 26.8793 10.2105 27.1116 9.22006C27.344 8.22966 27.2715 7.19215 26.9036 6.24369C26.5358 5.29523 25.8898 4.48013 25.0504 3.90538C24.211 3.33063 23.2175 3.02307 22.2002 3.02307C21.1829 3.02307 20.1894 3.33063 19.35 3.90538C18.5107 4.48013 17.8647 5.29523 17.4968 6.24369C17.129 7.19215 17.0565 8.22966 17.2888 9.22006C17.5212 10.2105 18.0475 11.1075 18.7988 11.7934C17.8093 12.2213 16.9104 12.8338 16.1503 13.5982C15.3901 12.8338 14.4913 12.2213 13.5018 11.7934C14.2531 11.1075 14.7794 10.2105 15.0118 9.22006C15.2441 8.22966 15.1716 7.19215 14.8038 6.24369C14.4359 5.29523 13.7899 4.48013 12.9506 3.90538C12.1112 3.33063 11.1177 3.02307 10.1004 3.02307C9.08308 3.02307 8.08955 3.33063 7.25018 3.90538C6.41081 4.48013 5.76481 5.29523 5.39697 6.24369C5.02912 7.19215 4.95662 8.22966 5.18897 9.22006C5.42132 10.2105 5.94767 11.1075 6.69895 11.7934C5.32255 12.3858 4.12575 13.329 3.22816 14.5289C3.14866 14.6349 3.09082 14.7555 3.05793 14.8839C3.02505 15.0122 3.01777 15.1458 3.03651 15.277C3.05525 15.4081 3.09964 15.5343 3.16714 15.6483C3.23465 15.7623 3.32395 15.8619 3.42995 15.9414ZM22.1964 5.04477C22.7951 5.04477 23.3803 5.22229 23.8781 5.55489C24.3758 5.88748 24.7638 6.36021 24.9929 6.9133C25.222 7.46638 25.2819 8.07498 25.1651 8.66214C25.0483 9.24929 24.7601 9.78862 24.3367 10.2119C23.9134 10.6352 23.3741 10.9235 22.7869 11.0403C22.1998 11.1571 21.5912 11.0972 21.0381 10.8681C20.485 10.639 20.0123 10.251 19.6797 9.75326C19.3471 9.25549 19.1696 8.67028 19.1696 8.07163C19.1696 7.26885 19.4885 6.49896 20.0561 5.93132C20.6238 5.36367 21.3937 5.04477 22.1964 5.04477ZM10.089 5.04477C10.6877 5.04477 11.2729 5.22229 11.7707 5.55489C12.2684 5.88748 12.6564 6.36021 12.8855 6.9133C13.1146 7.46638 13.1745 8.07498 13.0577 8.66214C12.9409 9.24929 12.6526 9.78862 12.2293 10.2119C11.806 10.6352 11.2667 10.9235 10.6795 11.0403C10.0924 11.1571 9.48378 11.0972 8.9307 10.8681C8.37761 10.639 7.90488 10.251 7.57229 9.75326C7.23969 9.25549 7.06217 8.67028 7.06217 8.07163C7.06217 7.26885 7.38107 6.49896 7.94872 5.93132C8.51636 5.36367 9.28625 5.04477 10.089 5.04477ZM25.6016 24.9098C26.3529 24.2238 26.8793 23.3268 27.1116 22.3364C27.344 21.346 27.2715 20.3085 26.9036 19.36C26.5358 18.4116 25.8898 17.5965 25.0504 17.0217C24.211 16.447 23.2175 16.1394 22.2002 16.1394C21.1829 16.1394 20.1894 16.447 19.35 17.0217C18.5107 17.5965 17.8647 18.4116 17.4968 19.36C17.129 20.3085 17.0565 21.346 17.2888 22.3364C17.5212 23.3268 18.0475 24.2238 18.7988 24.9098C17.8093 25.3376 16.9104 25.9501 16.1503 26.7145C15.3901 25.9501 14.4913 25.3376 13.5018 24.9098C14.2531 24.2238 14.7794 23.3268 15.0118 22.3364C15.2441 21.346 15.1716 20.3085 14.8038 19.36C14.4359 18.4116 13.7899 17.5965 12.9506 17.0217C12.1112 16.447 11.1177 16.1394 10.1004 16.1394C9.08308 16.1394 8.08955 16.447 7.25018 17.0217C6.41081 17.5965 5.76481 18.4116 5.39697 19.36C5.02912 20.3085 4.95662 21.346 5.18897 22.3364C5.42132 23.3268 5.94767 24.2238 6.69895 24.9098C5.32255 25.5021 4.12575 26.4454 3.22816 27.6453C3.14866 27.7513 3.09082 27.8719 3.05793 28.0002C3.02505 28.1286 3.01777 28.2622 3.03651 28.3933C3.05525 28.5245 3.09964 28.6507 3.16714 28.7647C3.23465 28.8787 3.32395 28.9783 3.42995 29.0578C3.53595 29.1373 3.65656 29.1951 3.78492 29.228C3.91327 29.2609 4.04684 29.2682 4.17801 29.2495C4.30917 29.2307 4.43536 29.1863 4.54937 29.1188C4.66338 29.0513 4.76298 28.962 4.84248 28.856C5.45335 28.0415 6.24548 27.3804 7.15612 26.9251C8.06676 26.4698 9.0709 26.2327 10.089 26.2327C11.1071 26.2327 12.1113 26.4698 13.0219 26.9251C13.9326 27.3804 14.7247 28.0415 15.3356 28.856C15.4963 29.0699 15.7354 29.2112 16.0003 29.2488C16.2652 29.2864 16.5342 29.2172 16.7481 29.0565C16.8244 28.9998 16.8919 28.9323 16.9486 28.856C17.5595 28.0415 18.3516 27.3804 19.2623 26.9251C20.1729 26.4698 21.177 26.2327 22.1952 26.2327C23.2133 26.2327 24.2174 26.4698 25.1281 26.9251C26.0387 27.3804 26.8308 28.0415 27.4417 28.856C27.6024 29.0701 27.8416 29.2115 28.1066 29.2493C28.3717 29.287 28.6408 29.2179 28.8549 29.0572C29.069 28.8965 29.2104 28.6573 29.2481 28.3923C29.2859 28.1272 29.2168 27.8581 29.056 27.644C28.1629 26.4467 26.972 25.5041 25.6016 24.9098ZM10.089 18.1611C10.6877 18.1611 11.2729 18.3387 11.7707 18.6713C12.2684 19.0038 12.6564 19.4766 12.8855 20.0297C13.1146 20.5827 13.1745 21.1913 13.0577 21.7785C12.9409 22.3657 12.6526 22.905 12.2293 23.3283C11.806 23.7516 11.2667 24.0399 10.6795 24.1567C10.0924 24.2735 9.48378 24.2135 8.9307 23.9844C8.37761 23.7553 7.90488 23.3674 7.57229 22.8696C7.23969 22.3719 7.06217 21.7866 7.06217 21.188C7.06217 20.3852 7.38107 19.6153 7.94872 19.0477C8.51636 18.48 9.28625 18.1611 10.089 18.1611ZM22.1964 18.1611C22.7951 18.1611 23.3803 18.3387 23.8781 18.6713C24.3758 19.0038 24.7638 19.4766 24.9929 20.0297C25.222 20.5827 25.2819 21.1913 25.1651 21.7785C25.0483 22.3657 24.7601 22.905 24.3367 23.3283C23.9134 23.7516 23.3741 24.0399 22.7869 24.1567C22.1998 24.2735 21.5912 24.2135 21.0381 23.9844C20.485 23.7553 20.0123 23.3674 19.6797 22.8696C19.3471 22.3719 19.1696 21.7866 19.1696 21.188C19.1696 20.3852 19.4885 19.6153 20.0561 19.0477C20.6238 18.48 21.3937 18.1611 22.1964 18.1611Z" fill="#343330"/>
</svg>
