<svg width="28" height="30" viewBox="0 0 28 30" fill="none" xmlns="http://www.w3.org/2000/svg">
<path d="M25.518 2.54124H22.1121V1.40594C22.1121 1.10483 21.9924 0.816065 21.7795 0.603153C21.5666 0.390242 21.2779 0.27063 20.9767 0.27063C20.6756 0.27063 20.3869 0.390242 20.174 0.603153C19.9611 0.816065 19.8414 1.10483 19.8414 1.40594V2.54124H8.48838V1.40594C8.48838 1.10483 8.36876 0.816065 8.15585 0.603153C7.94294 0.390242 7.65417 0.27063 7.35307 0.27063C7.05197 0.27063 6.7632 0.390242 6.55029 0.603153C6.33738 0.816065 6.21776 1.10483 6.21776 1.40594V2.54124H2.81184C2.20964 2.54124 1.6321 2.78047 1.20628 3.20629C0.780454 3.63211 0.541229 4.20965 0.541229 4.81186V27.518C0.541229 28.1202 0.780454 28.6977 1.20628 29.1236C1.6321 29.5494 2.20964 29.7886 2.81184 29.7886H25.518C26.1202 29.7886 26.6977 29.5494 27.1235 29.1236C27.5494 28.6977 27.7886 28.1202 27.7886 27.518V4.81186C27.7886 4.20965 27.5494 3.63211 27.1235 3.20629C26.6977 2.78047 26.1202 2.54124 25.518 2.54124ZM6.21776 4.81186V5.94716C6.21776 6.24826 6.33738 6.53703 6.55029 6.74995C6.7632 6.96286 7.05197 7.08247 7.35307 7.08247C7.65417 7.08247 7.94294 6.96286 8.15585 6.74995C8.36876 6.53703 8.48838 6.24826 8.48838 5.94716V4.81186H19.8414V5.94716C19.8414 6.24826 19.9611 6.53703 20.174 6.74995C20.3869 6.96286 20.6756 7.08247 20.9767 7.08247C21.2779 7.08247 21.5666 6.96286 21.7795 6.74995C21.9924 6.53703 22.1121 6.24826 22.1121 5.94716V4.81186H25.518V9.35308H2.81184V4.81186H6.21776ZM25.518 27.518H2.81184V11.6237H25.518V27.518ZM20.077 15.3617C20.1826 15.4671 20.2663 15.5923 20.3235 15.7302C20.3806 15.868 20.41 16.0157 20.41 16.1649C20.41 16.3141 20.3806 16.4619 20.3235 16.5997C20.2663 16.7375 20.1826 16.8627 20.077 16.9682L13.2652 23.78C13.1597 23.8855 13.0345 23.9693 12.8967 24.0264C12.7589 24.0836 12.6111 24.113 12.4619 24.113C12.3128 24.113 12.165 24.0836 12.0272 24.0264C11.8894 23.9693 11.7642 23.8855 11.6587 23.78L8.2528 20.3741C8.03977 20.161 7.92009 19.8721 7.92009 19.5708C7.92009 19.2696 8.03977 18.9806 8.2528 18.7676C8.46583 18.5546 8.75476 18.4349 9.05603 18.4349C9.3573 18.4349 9.64623 18.5546 9.85926 18.7676L12.4619 21.3717L18.4706 15.3617C18.576 15.2561 18.7012 15.1724 18.839 15.1153C18.9769 15.0581 19.1246 15.0287 19.2738 15.0287C19.423 15.0287 19.5707 15.0581 19.7085 15.1153C19.8464 15.1724 19.9716 15.2561 20.077 15.3617Z" fill="#343330"/>
</svg>
