<svg width="37" height="37" viewBox="0 0 37 37" fill="none" xmlns="http://www.w3.org/2000/svg">
<path d="M15.8219 7.46885C15.5552 7.2029 15.2259 7.0084 14.8642 6.90329C14.5026 6.79818 14.1203 6.78586 13.7527 6.86745C13.385 6.94904 13.0438 7.12192 12.7606 7.37014C12.4774 7.61835 12.2612 7.93391 12.1321 8.28769L4.68309 28.7771C4.56072 29.115 4.52119 29.4773 4.56782 29.8336C4.61446 30.19 4.74589 30.5299 4.95109 30.8249C5.15629 31.1199 5.42927 31.3614 5.74711 31.5291C6.06495 31.6967 6.41838 31.7857 6.77773 31.7885C7.04231 31.7867 7.30453 31.7387 7.55258 31.6466L28.0406 24.1962C28.3945 24.0672 28.7102 23.8512 28.9586 23.568C29.2069 23.2849 29.38 22.9437 29.4617 22.576C29.5434 22.2084 29.5312 21.826 29.4262 21.4643C29.3212 21.1026 29.1268 20.7732 28.8609 20.5064L15.8219 7.46885ZM14.6397 26.6569L9.67276 21.69L11.5403 16.5513L19.7784 24.7894L14.6397 26.6569ZM6.83449 29.4952L8.82128 24.0443L12.2911 27.5141L6.83449 29.4952ZM22.1384 23.9322L12.3975 14.1913L14.2424 9.10085L27.2175 22.076L22.1384 23.9322ZM22.7061 10.2177C22.7274 9.4502 22.9132 8.69621 23.251 8.0067C24.0032 6.50383 25.4223 5.67648 27.2473 5.67648C28.1981 5.67648 28.8084 5.3515 29.1844 4.65329C29.3824 4.26267 29.4961 3.83475 29.5179 3.39735C29.519 3.09625 29.6397 2.80793 29.8535 2.59582C30.0672 2.3837 30.3564 2.26517 30.6575 2.2663C30.9586 2.26743 31.2469 2.38813 31.459 2.60184C31.6711 2.81555 31.7897 3.10477 31.7885 3.40587C31.7885 5.23087 30.5794 7.94709 27.2473 7.94709C26.2965 7.94709 25.6863 8.27207 25.3102 8.97029C25.1122 9.36091 24.9985 9.78882 24.9767 10.2262C24.9761 10.3753 24.9462 10.5228 24.8886 10.6604C24.8311 10.7979 24.747 10.9227 24.6412 11.0278C24.5353 11.1328 24.4099 11.2159 24.2719 11.2725C24.134 11.329 23.9862 11.3578 23.8371 11.3573C23.688 11.3567 23.5405 11.3268 23.403 11.2692C23.2655 11.2116 23.1406 11.1276 23.0356 11.0217C22.9306 10.9159 22.8474 10.7904 22.7909 10.6525C22.7343 10.5145 22.7055 10.3668 22.7061 10.2177ZM19.3002 5.67648V2.27056C19.3002 1.96946 19.4198 1.68069 19.6327 1.46778C19.8456 1.25487 20.1344 1.13525 20.4355 1.13525C20.7366 1.13525 21.0253 1.25487 21.2383 1.46778C21.4512 1.68069 21.5708 1.96946 21.5708 2.27056V5.67648C21.5708 5.97758 21.4512 6.26635 21.2383 6.47926C21.0253 6.69217 20.7366 6.81179 20.4355 6.81179C20.1344 6.81179 19.8456 6.69217 19.6327 6.47926C19.4198 6.26635 19.3002 5.97758 19.3002 5.67648ZM33.7271 17.3616C33.8325 17.4671 33.916 17.5923 33.973 17.7301C34.03 17.8679 34.0593 18.0155 34.0593 18.1646C34.0592 18.3138 34.0298 18.4614 33.9727 18.5991C33.9155 18.7369 33.8318 18.862 33.7264 18.9674C33.6209 19.0728 33.4957 19.1563 33.3579 19.2133C33.2201 19.2703 33.0724 19.2996 32.9233 19.2996C32.7742 19.2995 32.6266 19.2701 32.4889 19.213C32.3511 19.1558 32.226 19.0721 32.1206 18.9667L29.85 16.696C29.637 16.483 29.5173 16.1941 29.5173 15.8928C29.5173 15.5916 29.637 15.3026 29.85 15.0896C30.063 14.8766 30.352 14.7569 30.6532 14.7569C30.9545 14.7569 31.2434 14.8766 31.4565 15.0896L33.7271 17.3616ZM34.4182 11.2948L31.0123 12.4301C30.7266 12.5254 30.4148 12.5032 30.1455 12.3685C29.8761 12.2339 29.6713 11.9977 29.5761 11.7121C29.4809 11.4264 29.503 11.1146 29.6377 10.8453C29.7724 10.5759 30.0085 10.3711 30.2942 10.2759L33.7001 9.14058C33.9858 9.04536 34.2976 9.06752 34.5669 9.20219C34.8362 9.33685 35.041 9.573 35.1363 9.85867C35.2315 10.1443 35.2093 10.4561 35.0747 10.7255C34.94 10.9948 34.7039 11.1996 34.4182 11.2948Z" fill="#343330"/>
</svg>
