<svg width="25" height="25" viewBox="0 0 25 25" fill="none" xmlns="http://www.w3.org/2000/svg">
<path d="M24.7075 4.29255L20.7075 0.292554C20.6146 0.199578 20.5043 0.125819 20.3829 0.0754943C20.2615 0.02517 20.1314 -0.000732422 20 -0.000732422C19.8686 -0.000732422 19.7385 0.02517 19.6171 0.0754943C19.4957 0.125819 19.3854 0.199578 19.2925 0.292554L7.2925 12.2926C7.19967 12.3855 7.12605 12.4958 7.07586 12.6172C7.02568 12.7386 6.9999 12.8687 7 13.0001V17.0001C7 17.2653 7.10536 17.5196 7.29289 17.7072C7.48043 17.8947 7.73478 18.0001 8 18.0001H12C12.1314 18.0002 12.2615 17.9744 12.3829 17.9242C12.5042 17.874 12.6146 17.8004 12.7075 17.7076L24.7075 5.70755C24.8005 5.61468 24.8742 5.50439 24.9246 5.38299C24.9749 5.2616 25.0008 5.13147 25.0008 5.00005C25.0008 4.86864 24.9749 4.73851 24.9246 4.61711C24.8742 4.49572 24.8005 4.38543 24.7075 4.29255ZM11.5863 16.0001H9V13.4138L17 5.4138L19.5863 8.00005L11.5863 16.0001ZM21 6.5863L18.4137 4.00005L20 2.4138L22.5863 5.00005L21 6.5863ZM24 13.0001V23.0001C24 23.5305 23.7893 24.0392 23.4142 24.4143C23.0391 24.7893 22.5304 25.0001 22 25.0001H2C1.46957 25.0001 0.960859 24.7893 0.585786 24.4143C0.210714 24.0392 0 23.5305 0 23.0001V3.00005C0 2.46962 0.210714 1.96091 0.585786 1.58584C0.960859 1.21077 1.46957 1.00005 2 1.00005H12C12.2652 1.00005 12.5196 1.10541 12.7071 1.29295C12.8946 1.48048 13 1.73484 13 2.00005C13 2.26527 12.8946 2.51962 12.7071 2.70716C12.5196 2.8947 12.2652 3.00005 12 3.00005H2V23.0001H22V13.0001C22 12.7348 22.1054 12.4805 22.2929 12.2929C22.4804 12.1054 22.7348 12.0001 23 12.0001C23.2652 12.0001 23.5196 12.1054 23.7071 12.2929C23.8946 12.4805 24 12.7348 24 13.0001Z" fill="url(#paint0_linear_856933_5)"/>
<defs>
<linearGradient id="paint0_linear_856933_5" x1="0" y1="12.4997" x2="25.0008" y2="12.4997" gradientUnits="userSpaceOnUse">
<stop stop-color="#9030CF"/>
<stop offset="1" stop-color="#78C3FF"/>
</linearGradient>
</defs>
</svg>
