<svg width="24" height="25" viewBox="0 0 24 25" fill="none" xmlns="http://www.w3.org/2000/svg">
<path d="M0.345 2.24997C0.237419 2.34322 0.150991 2.45836 0.0914936 2.5877C0.0319966 2.71704 0.000803345 2.8576 0 2.99997V24C0 24.2652 0.105357 24.5195 0.292893 24.7071C0.48043 24.8946 0.734784 25 1 25C1.26522 25 1.51957 24.8946 1.70711 24.7071C1.89464 24.5195 2 24.2652 2 24V18.4712C5.34875 15.8262 8.23375 17.2525 11.5562 18.8975C13.6062 19.9112 15.8137 21.0037 18.1812 21.0037C19.9225 21.0037 21.7488 20.41 23.6588 18.7537C23.7663 18.6605 23.8528 18.5453 23.9123 18.416C23.9718 18.2866 24.0029 18.1461 24.0037 18.0037V2.99997C24.0033 2.80802 23.9476 2.62027 23.8433 2.45911C23.7391 2.29796 23.5906 2.17022 23.4157 2.09114C23.2408 2.01206 23.0469 1.98499 22.857 2.01315C22.6672 2.04131 22.4894 2.12352 22.345 2.24997C18.845 5.27872 15.88 3.81122 12.4438 2.10997C8.88375 0.344967 4.8475 -1.65128 0.345 2.24997ZM22 17.5312C18.6512 20.1762 15.7663 18.7487 12.4438 17.105C9.31875 15.5612 5.8425 13.8387 2 16.055V3.47372C5.34875 0.828717 8.23375 2.25497 11.5562 3.89872C14.6812 5.44247 18.1588 7.16497 22 4.94872V17.5312Z" fill="#343330"/>
</svg>
