<svg width="24" height="29" viewBox="0 0 24 29" fill="none" xmlns="http://www.w3.org/2000/svg">
<path d="M22 10.1713V10C22 7.34784 20.9464 4.8043 19.0711 2.92893C17.1957 1.05357 14.6522 0 12 0C9.34784 0 6.8043 1.05357 4.92894 2.92893C3.05357 4.8043 2 7.34784 2 10V10.1713C1.33256 10.407 0.769972 10.8711 0.411712 11.4816C0.0534512 12.0921 -0.077402 12.8096 0.0422903 13.5073C0.161983 14.2049 0.52451 14.8378 1.06577 15.294C1.60703 15.7501 2.29216 16.0002 3 16H3.41125L10.2638 27.9925C10.4387 28.2985 10.6915 28.5529 10.9964 28.7297C11.3013 28.9066 11.6475 28.9998 12 28.9998C12.3525 28.9998 12.6987 28.9066 13.0037 28.7297C13.3086 28.5529 13.5613 28.2985 13.7363 27.9925L20.5888 16H21C21.7079 16.0002 22.393 15.7501 22.9342 15.294C23.4755 14.8378 23.838 14.2049 23.9577 13.5073C24.0774 12.8096 23.9466 12.0921 23.5883 11.4816C23.23 10.8711 22.6674 10.407 22 10.1713ZM5.71375 16H8.13375L13.21 24.8825L12 27L5.71375 16ZM12.8488 16L15.5675 20.7575L14.3613 22.8675L10.4375 16H12.8488ZM16.7238 18.7425L15.1513 16H18.2863L16.7238 18.7425ZM21 14H3C2.73479 14 2.48043 13.8946 2.2929 13.7071C2.10536 13.5196 2 13.2652 2 13C2 12.7348 2.10536 12.4804 2.2929 12.2929C2.48043 12.1054 2.73479 12 3 12C3.26522 12 3.51957 11.8946 3.70711 11.7071C3.89465 11.5196 4 11.2652 4 11V10C4 7.87827 4.84286 5.84344 6.34315 4.34315C7.84344 2.84285 9.87827 2 12 2C14.1217 2 16.1566 2.84285 17.6569 4.34315C19.1572 5.84344 20 7.87827 20 10V11C20 11.2652 20.1054 11.5196 20.2929 11.7071C20.4804 11.8946 20.7348 12 21 12C21.2652 12 21.5196 12.1054 21.7071 12.2929C21.8946 12.4804 22 12.7348 22 13C22 13.2652 21.8946 13.5196 21.7071 13.7071C21.5196 13.8946 21.2652 14 21 14Z" fill="#343330"/>
</svg>
