<svg width="32" height="32" viewBox="0 0 32 32" fill="none" xmlns="http://www.w3.org/2000/svg">
<path d="M26.5301 3.74995C26.1829 3.1527 25.6669 2.67153 25.0468 2.36704C24.4267 2.06254 23.7304 1.94835 23.0456 2.03883C22.3607 2.12931 21.718 2.42043 21.1983 2.87551C20.6786 3.3306 20.3052 3.9293 20.1251 4.5962L18.5001 10.6362L16.8813 4.5962C16.7769 4.13696 16.581 3.70349 16.3051 3.32178C16.0293 2.94007 15.6792 2.61795 15.2759 2.37472C14.8726 2.1315 14.4244 1.97216 13.9581 1.90626C13.4918 1.84036 13.0169 1.86925 12.562 1.9912C12.1071 2.11315 11.6815 2.32565 11.3107 2.61598C10.9399 2.90631 10.6315 3.26849 10.4039 3.68083C10.1764 4.09317 10.0344 4.54719 9.9865 5.01571C9.93858 5.48422 9.98571 5.95758 10.1251 6.40745L11.2976 10.7825L10.2063 10.5725C9.46026 10.4189 8.68449 10.5129 7.99672 10.8403C7.30895 11.1676 6.74674 11.7104 6.3954 12.3862C6.04406 13.062 5.92277 13.834 6.04994 14.585C6.17712 15.336 6.54581 16.025 7.10006 16.5475C6.75021 16.8756 6.47192 17.2725 6.28263 17.7132C6.09334 18.154 5.99714 18.629 6.00006 19.1087V20C6.00006 22.6521 7.05363 25.1957 8.929 27.071C10.8044 28.9464 13.3479 30 16.0001 30H16.0763C21.5488 29.9587 26.0001 25.4225 26.0001 19.8875V19.47C25.9991 17.9183 25.4814 16.4111 24.5288 15.1862L26.8751 6.40745C26.9963 5.9637 27.0283 5.5003 26.969 5.04411C26.9098 4.58792 26.7606 4.14803 26.5301 3.74995ZM12.2013 4.74995C12.3494 4.49236 12.5708 4.28456 12.8372 4.15293C13.1036 4.0213 13.4031 3.97175 13.6977 4.01059C13.9923 4.04942 14.2687 4.17488 14.4919 4.37105C14.7151 4.56723 14.875 4.82527 14.9513 5.11245L16.7976 12.0062C16.1713 12.0445 15.5669 12.2504 15.0476 12.6025C15.0416 12.5912 15.035 12.5803 15.0276 12.57C14.6546 12.004 14.1234 11.5601 13.5001 11.2937L12.0526 5.88995C12.0008 5.69953 11.9872 5.50073 12.0128 5.30506C12.0383 5.10938 12.1024 4.9207 12.2013 4.74995ZM8.03131 13.7C8.07089 13.506 8.14847 13.3217 8.2596 13.1579C8.37072 12.994 8.51319 12.8537 8.67878 12.7452C8.84437 12.6367 9.02981 12.562 9.2244 12.5255C9.41899 12.489 9.61889 12.4913 9.81256 12.5325L12.4013 13.0325C12.5944 13.0718 12.7778 13.1488 12.9411 13.2591C13.1044 13.3693 13.2443 13.5107 13.353 13.6751C13.4616 13.8394 13.5369 14.0236 13.5743 14.217C13.6118 14.4105 13.6108 14.6094 13.5713 14.8025C13.5317 14.9964 13.4542 15.1807 13.343 15.3446C13.2319 15.5084 13.0894 15.6487 12.9239 15.7572C12.7583 15.8657 12.5728 15.9404 12.3782 15.9769C12.1836 16.0134 11.9837 16.0111 11.7901 15.97L9.19631 15.47C8.80759 15.3893 8.46669 15.1579 8.24832 14.8263C8.02994 14.4948 7.95191 14.0902 8.03131 13.7012V13.7ZM8.03131 18.79C8.11071 18.404 8.33878 18.0648 8.66624 17.8456C8.9937 17.6265 9.39425 17.5449 9.78131 17.6187L11.0451 17.8687C11.4347 17.9482 11.7768 18.1792 11.9962 18.5109C12.2156 18.8425 12.2943 19.2478 12.2151 19.6375C12.1756 19.8309 12.0983 20.0147 11.9877 20.1782C11.877 20.3417 11.7352 20.4818 11.5703 20.5904C11.4053 20.699 11.2206 20.7739 11.0267 20.811C10.8327 20.848 10.6334 20.8464 10.4401 20.8062L9.19006 20.5562C8.80062 20.4761 8.45889 20.2447 8.23997 19.9128C8.02105 19.581 7.94285 19.1757 8.02256 18.7862L8.03131 18.79ZM24.0001 19.8875C24.0001 24.3287 20.4388 27.9675 16.0626 28C14.35 28.0121 12.6787 27.4751 11.2938 26.4677C9.9089 25.4603 8.88332 24.0355 8.36756 22.4025C8.51012 22.4505 8.65536 22.4902 8.80256 22.5212L10.0526 22.7712C10.2834 22.8182 10.5183 22.8421 10.7538 22.8425C11.3698 22.8423 11.9749 22.6795 12.5079 22.3707C13.0409 22.0618 13.4829 21.6177 13.7893 21.0833C14.0957 20.5489 14.2556 19.9431 14.2529 19.327C14.2502 18.711 14.0849 18.1066 13.7738 17.575C13.8726 17.5212 13.9701 17.4637 14.0638 17.4L14.0838 17.4325C14.3366 17.8171 14.6632 18.1478 15.0447 18.4053C15.4262 18.6628 15.855 18.842 16.3063 18.9325L17.0963 19.09C16.9466 19.8127 16.9769 20.5611 17.1847 21.2694C17.3924 21.9776 17.7712 22.6239 18.2876 23.1512C18.4749 23.333 18.726 23.4343 18.987 23.4334C19.2481 23.4326 19.4985 23.3297 19.6847 23.1468C19.8709 22.9638 19.9782 22.7153 19.9836 22.4543C19.9891 22.1933 19.8922 21.9405 19.7138 21.75C19.34 21.3685 19.0982 20.8774 19.0237 20.3486C18.9492 19.8198 19.0461 19.281 19.3001 18.8112C19.3747 18.6736 19.4161 18.5204 19.4207 18.3639C19.4254 18.2074 19.3932 18.0519 19.3268 17.9101C19.2604 17.7683 19.1616 17.6441 19.0384 17.5475C18.9152 17.4508 18.7711 17.3845 18.6176 17.3537L16.7001 16.97C16.3107 16.8902 15.9688 16.6591 15.7497 16.3274C15.5305 15.9958 15.452 15.5907 15.5313 15.2012C15.5708 15.008 15.648 14.8245 15.7585 14.6611C15.869 14.4978 16.0106 14.3578 16.1752 14.2493C16.3398 14.1407 16.5243 14.0657 16.7179 14.0285C16.9116 13.9913 17.1107 13.9926 17.3038 14.0325L19.9801 14.5675C21.1125 14.7962 22.1311 15.4091 22.8636 16.3024C23.5961 17.1957 23.9976 18.3147 24.0001 19.47V19.8875ZM24.9488 5.88745L22.8713 13.6375C22.1139 13.1319 21.2645 12.7802 20.3713 12.6025L20.0588 12.54L22.0501 5.1137C22.0987 4.92091 22.1852 4.73971 22.3045 4.58064C22.4238 4.42158 22.5735 4.28781 22.745 4.18713C22.9164 4.08645 23.1062 4.02086 23.3032 3.99418C23.5002 3.9675 23.7006 3.98025 23.8927 4.03171C24.0847 4.08316 24.2646 4.17228 24.4219 4.29389C24.5792 4.4155 24.7108 4.56717 24.809 4.74009C24.9071 4.913 24.9699 5.1037 24.9937 5.3011C25.0175 5.4985 25.0018 5.69867 24.9476 5.88995L24.9488 5.88745Z" fill="#343330"/>
</svg>
