<svg width="37" height="37" viewBox="0 0 37 37" fill="none" xmlns="http://www.w3.org/2000/svg">
<path d="M3.86001 17.9378C3.97928 18.0273 4.115 18.0924 4.25943 18.1294C4.40386 18.1664 4.55415 18.1745 4.70175 18.1535C4.84934 18.1324 4.99133 18.0824 5.11962 18.0065C5.24791 17.9305 5.35998 17.83 5.44944 17.7108C6.13681 16.7942 7.02814 16.0504 8.05282 15.538C9.0775 15.0257 10.2074 14.759 11.353 14.759C12.4987 14.759 13.6286 15.0257 14.6532 15.538C15.6779 16.0504 16.5692 16.7942 17.2566 17.7108C17.4375 17.9514 17.7066 18.1104 18.0046 18.1527C18.3027 18.195 18.6053 18.1172 18.8461 17.9364C18.9319 17.8726 19.0079 17.7966 19.0717 17.7108C19.7591 16.7942 20.6504 16.0504 21.6751 15.538C22.6998 15.0257 23.8297 14.759 24.9753 14.759C26.1209 14.759 27.2508 15.0257 28.2755 15.538C29.3002 16.0504 30.1915 16.7942 30.8789 17.7108C31.0597 17.9516 31.3289 18.1108 31.6271 18.1533C31.9253 18.1957 32.2281 18.118 32.469 17.9371C32.7099 17.7563 32.8691 17.4871 32.9115 17.1889C32.954 16.8907 32.8762 16.5878 32.6954 16.347C31.6904 14.9997 30.3504 13.939 28.8084 13.2703C29.6537 12.4985 30.246 11.4891 30.5075 10.3747C30.7689 9.26024 30.6873 8.0928 30.2734 7.02556C29.8595 5.95832 29.1326 5.04115 28.1881 4.39442C27.2436 3.74769 26.1257 3.40161 24.981 3.40161C23.8363 3.40161 22.7183 3.74769 21.7738 4.39442C20.8293 5.04115 20.1024 5.95832 19.6885 7.02556C19.2746 8.0928 19.193 9.26024 19.4545 10.3747C19.7159 11.4891 20.3082 12.4985 21.1536 13.2703C20.0402 13.7517 19.0287 14.4409 18.1734 15.3011C17.318 14.4409 16.3066 13.7517 15.1932 13.2703C16.0386 12.4985 16.6308 11.4891 16.8923 10.3747C17.1537 9.26024 17.0722 8.0928 16.6582 7.02556C16.2443 5.95832 15.5174 5.04115 14.5729 4.39442C13.6284 3.74769 12.5105 3.40161 11.3658 3.40161C10.2211 3.40161 9.10316 3.74769 8.15867 4.39442C7.21417 5.04115 6.48727 5.95832 6.07336 7.02556C5.65945 8.0928 5.57787 9.26024 5.83932 10.3747C6.10077 11.4891 6.69304 12.4985 7.5384 13.2703C5.98963 13.9368 4.64294 14.9982 3.63295 16.3484C3.54349 16.4677 3.4784 16.6034 3.4414 16.7478C3.4044 16.8922 3.39621 17.0425 3.41729 17.1901C3.43838 17.3377 3.48833 17.4797 3.56429 17.608C3.64025 17.7363 3.74073 17.8484 3.86001 17.9378ZM24.9767 5.6765C25.6503 5.6765 26.3088 5.87625 26.8689 6.2505C27.429 6.62475 27.8656 7.15668 28.1234 7.77903C28.3812 8.40138 28.4486 9.0862 28.3172 9.74688C28.1858 10.4076 27.8614 11.0144 27.3851 11.4908C26.9087 11.9671 26.3019 12.2915 25.6412 12.4229C24.9805 12.5543 24.2957 12.4869 23.6733 12.2291C23.051 11.9713 22.519 11.5347 22.1448 10.9746C21.7705 10.4145 21.5708 9.75605 21.5708 9.08242C21.5708 8.17911 21.9296 7.3128 22.5684 6.67407C23.2071 6.03534 24.0734 5.6765 24.9767 5.6765ZM11.353 5.6765C12.0267 5.6765 12.6852 5.87625 13.2453 6.2505C13.8054 6.62475 14.2419 7.15668 14.4997 7.77903C14.7575 8.40138 14.8249 9.0862 14.6935 9.74688C14.5621 10.4076 14.2377 11.0144 13.7614 11.4908C13.2851 11.9671 12.6782 12.2915 12.0175 12.4229C11.3568 12.5543 10.672 12.4869 10.0496 12.2291C9.42729 11.9713 8.89536 11.5347 8.52111 10.9746C8.14686 10.4145 7.94711 9.75605 7.94711 9.08242C7.94711 8.17911 8.30595 7.3128 8.94468 6.67407C9.58342 6.03534 10.4497 5.6765 11.353 5.6765ZM28.8084 28.0293C29.6537 27.2575 30.246 26.2481 30.5075 25.1337C30.7689 24.0192 30.6873 22.8518 30.2734 21.7845C29.8595 20.7173 29.1326 19.8001 28.1881 19.1534C27.2436 18.5067 26.1257 18.1606 24.981 18.1606C23.8363 18.1606 22.7183 18.5067 21.7738 19.1534C20.8293 19.8001 20.1024 20.7173 19.6885 21.7845C19.2746 22.8518 19.193 24.0192 19.4545 25.1337C19.7159 26.2481 20.3082 27.2575 21.1536 28.0293C20.0402 28.5107 19.0287 29.1999 18.1734 30.06C17.318 29.1999 16.3066 28.5107 15.1932 28.0293C16.0386 27.2575 16.6308 26.2481 16.8923 25.1337C17.1537 24.0192 17.0722 22.8518 16.6582 21.7845C16.2443 20.7173 15.5174 19.8001 14.5729 19.1534C13.6284 18.5067 12.5105 18.1606 11.3658 18.1606C10.2211 18.1606 9.10316 18.5067 8.15867 19.1534C7.21417 19.8001 6.48727 20.7173 6.07336 21.7845C5.65945 22.8518 5.57787 24.0192 5.83932 25.1337C6.10077 26.2481 6.69304 27.2575 7.5384 28.0293C5.98963 28.6958 4.64294 29.7572 3.63295 31.1074C3.54349 31.2266 3.4784 31.3624 3.4414 31.5068C3.4044 31.6512 3.39621 31.8015 3.41729 31.9491C3.43838 32.0967 3.48833 32.2387 3.56429 32.367C3.64025 32.4953 3.74073 32.6073 3.86001 32.6968C3.97928 32.7862 4.115 32.8513 4.25943 32.8883C4.40386 32.9253 4.55415 32.9335 4.70175 32.9124C4.84934 32.8914 4.99133 32.8414 5.11962 32.7655C5.24791 32.6895 5.35998 32.589 5.44944 32.4697C6.13681 31.5532 7.02814 30.8094 8.05282 30.297C9.0775 29.7847 10.2074 29.5179 11.353 29.5179C12.4987 29.5179 13.6286 29.7847 14.6532 30.297C15.6779 30.8094 16.5692 31.5532 17.2566 32.4697C17.4375 32.7104 17.7066 32.8694 18.0046 32.9117C18.3027 32.954 18.6053 32.8762 18.8461 32.6954C18.9319 32.6316 19.0079 32.5555 19.0717 32.4697C19.7591 31.5532 20.6504 30.8094 21.6751 30.297C22.6998 29.7847 23.8297 29.5179 24.9753 29.5179C26.1209 29.5179 27.2508 29.7847 28.2755 30.297C29.3002 30.8094 30.1915 31.5532 30.8789 32.4697C31.0597 32.7106 31.3289 32.8698 31.6271 32.9122C31.9253 32.9547 32.2281 32.8769 32.469 32.6961C32.7099 32.5152 32.8691 32.2461 32.9115 31.9479C32.954 31.6497 32.8762 31.3468 32.6954 31.1059C31.6904 29.7587 30.3504 28.698 28.8084 28.0293ZM11.353 20.4355C12.0267 20.4355 12.6852 20.6352 13.2453 21.0095C13.8054 21.3837 14.2419 21.9157 14.4997 22.538C14.7575 23.1604 14.8249 23.8452 14.6935 24.5059C14.5621 25.1666 14.2377 25.7734 13.7614 26.2498C13.2851 26.7261 12.6782 27.0505 12.0175 27.1819C11.3568 27.3133 10.672 27.2458 10.0496 26.9881C9.42729 26.7303 8.89536 26.2937 8.52111 25.7336C8.14686 25.1735 7.94711 24.515 7.94711 23.8414C7.94711 22.9381 8.30595 22.0718 8.94468 21.4331C9.58342 20.7943 10.4497 20.4355 11.353 20.4355ZM24.9767 20.4355C25.6503 20.4355 26.3088 20.6352 26.8689 21.0095C27.429 21.3837 27.8656 21.9157 28.1234 22.538C28.3812 23.1604 28.4486 23.8452 28.3172 24.5059C28.1858 25.1666 27.8614 25.7734 27.3851 26.2498C26.9087 26.7261 26.3019 27.0505 25.6412 27.1819C24.9805 27.3133 24.2957 27.2458 23.6733 26.9881C23.051 26.7303 22.519 26.2937 22.1448 25.7336C21.7705 25.1735 21.5708 24.515 21.5708 23.8414C21.5708 22.9381 21.9296 22.0718 22.5684 21.4331C23.2071 20.7943 24.0734 20.4355 24.9767 20.4355Z" fill="#343330"/>
</svg>
