<svg width="24" height="24" viewBox="0 0 24 24" fill="none" xmlns="http://www.w3.org/2000/svg">
<path d="M22 0H2C1.46957 0 0.960859 0.210714 0.585786 0.585786C0.210714 0.960859 0 1.46957 0 2V22C0 22.5304 0.210714 23.0391 0.585786 23.4142C0.960859 23.7893 1.46957 24 2 24H22C22.5304 24 23.0391 23.7893 23.4142 23.4142C23.7893 23.0391 24 22.5304 24 22V2C24 1.46957 23.7893 0.960859 23.4142 0.585786C23.0391 0.210714 22.5304 0 22 0ZM22 2V15H18.4125C18.15 14.9993 17.8899 15.0508 17.6474 15.1514C17.405 15.2521 17.1849 15.3999 17 15.5863L14.5863 18H9.41375L7 15.5863C6.81496 15.3997 6.59468 15.2518 6.35198 15.1512C6.10928 15.0506 5.84899 14.9992 5.58625 15H2V2H22ZM22 22H2V17H5.58625L8 19.4137C8.18504 19.6003 8.40532 19.7482 8.64802 19.8488C8.89072 19.9494 9.15101 20.0008 9.41375 20H14.5863C14.849 20.0008 15.1093 19.9494 15.352 19.8488C15.5947 19.7482 15.815 19.6003 16 19.4137L18.4137 17H22V22ZM7.2925 9.7075C7.19952 9.61463 7.12576 9.50434 7.07544 9.38294C7.02512 9.26154 6.99921 9.13142 6.99921 9C6.99921 8.86858 7.02512 8.73846 7.07544 8.61706C7.12576 8.49566 7.19952 8.38537 7.2925 8.2925L11.2925 4.2925C11.3854 4.19952 11.4957 4.12576 11.6171 4.07544C11.7385 4.02512 11.8686 3.99921 12 3.99921C12.1314 3.99921 12.2615 4.02512 12.3829 4.07544C12.5043 4.12576 12.6146 4.19952 12.7075 4.2925L16.7075 8.2925C16.8004 8.38541 16.8741 8.49571 16.9244 8.6171C16.9747 8.7385 17.0006 8.8686 17.0006 9C17.0006 9.1314 16.9747 9.2615 16.9244 9.3829C16.8741 9.50429 16.8004 9.61459 16.7075 9.7075C16.6146 9.80041 16.5043 9.87411 16.3829 9.92439C16.2615 9.97468 16.1314 10.0006 16 10.0006C15.8686 10.0006 15.7385 9.97468 15.6171 9.92439C15.4957 9.87411 15.3854 9.80041 15.2925 9.7075L13 7.41375V15C13 15.2652 12.8946 15.5196 12.7071 15.7071C12.5196 15.8946 12.2652 16 12 16C11.7348 16 11.4804 15.8946 11.2929 15.7071C11.1054 15.5196 11 15.2652 11 15V7.41375L8.7075 9.7075C8.61463 9.80048 8.50434 9.87424 8.38294 9.92456C8.26154 9.97488 8.13142 10.0008 8 10.0008C7.86858 10.0008 7.73846 9.97488 7.61706 9.92456C7.49566 9.87424 7.38537 9.80048 7.2925 9.7075Z" fill="url(#paint0_linear_856933_832)"/>
<defs>
<linearGradient id="paint0_linear_856933_832" x1="0" y1="12" x2="24" y2="12" gradientUnits="userSpaceOnUse">
<stop stop-color="#9030CF"/>
<stop offset="1" stop-color="#78C3FF"/>
</linearGradient>
</defs>
</svg>
